<svg width="169" height="422" viewBox="0 0 169 422" fill="none" xmlns="http://www.w3.org/2000/svg">
<path d="M0.813182 416.003C0.0967609 415.686 -0.202715 414.78 0.144274 413.982L5.79843 400.965C6.14539 400.166 7.00744 399.776 7.72384 400.094C8.44023 400.411 8.73971 401.316 8.39276 402.115L3.36682 413.686L13.7441 418.287C14.4605 418.605 14.76 419.51 14.413 420.309C14.066 421.108 13.204 421.498 12.4876 421.18L0.813182 416.003ZM133.673 2.19853C133.398 1.41534 133.781 0.493162 134.528 0.138793C135.275 -0.215576 136.103 0.132052 136.378 0.915243L133.673 2.19853ZM0.968435 413.127C97.8048 369.315 143.786 303.48 159.236 230.317C174.715 157.009 159.594 76.0937 133.673 2.19853L136.378 0.915243C162.373 75.0201 177.711 156.604 162.044 230.797C146.347 305.134 99.5781 371.799 1.9144 415.986L0.968435 413.127Z" fill="url(#paint0_linear_784_72790)"/>
<defs>
<linearGradient id="paint0_linear_784_72790" x1="-24.0471" y1="253.996" x2="198.085" y2="171.637" gradientUnits="userSpaceOnUse">
<stop stop-color="#BFF0FF"/>
<stop offset="1" stop-color="#82B4FF"/>
</linearGradient>
</defs>
</svg>
